<!-- Simple dartball favicon (scales well). Save as favicon.svg in your React public folder. -->
<svg xmlns="http://www.w3.org/2000/svg" width="64" height="64" viewBox="0 0 64 64" role="img" aria-label="Dartball">
  <defs>
    <linearGradient id="g1" x1="0" x2="1">
      <stop offset="0" stop-color="#0b1220"/>
      <stop offset="1" stop-color="#075b55"/>
    </linearGradient>
    <filter id="f1" x="-50%" y="-50%" width="200%" height="200%">
      <feDropShadow dx="0" dy="2" stdDeviation="2" flood-color="#000" flood-opacity="0.45"/>
    </filter>
  </defs>

  <!-- background circle / ring -->
  <circle cx="32" cy="32" r="30" fill="url(#g1)"/>
  <circle cx="32" cy="32" r="24" fill="#fff"/>

  <!-- rings -->
  <circle cx="32" cy="32" r="18" fill="#083a3a"/>
  <circle cx="32" cy="32" r="12" fill="#fff"/>
  <circle cx="32" cy="32" r="6" fill="#e53935"/>

  <!-- crosshair lines -->
  <g stroke="#07101a" stroke-width="2" stroke-linecap="round">
    <line x1="32" y1="8" x2="32" y2="56" opacity="0.18"/>
    <line x1="8" y1="32" x2="56" y2="32" opacity="0.18"/>
  </g>

  <!-- stylized dart (top-right to center) -->
  <g transform="translate(0,0)" filter="url(#f1)">
    <path d="M48 12 L54 14 L50 18 L52 24 L46 22 L44 18 Z" fill="#ffcd00" transform="rotate(20 48 18)"/>
    <path d="M48 12 L40 20 L36 24 L34 26 L30 30 L32 32 L36 28 L40 24 L48 16 Z" fill="#2b2b2b" opacity="0.95" transform="rotate(20 48 18)"/>
    <rect x="36" y="22" width="18" height="4" rx="2" ry="2" fill="#d8d8d8" transform="rotate(20 36 22)"/>
  </g>

  <!-- subtle inner shadow -->
  <ellipse cx="32" cy="36" rx="16" ry="6" fill="#000" opacity="0.04"/>
</svg>